# xmcd CD database file
#
# Track frame offsets:
#	150
#	12874
#	35300
#	55099
#	73978
#	92567
#	112918
#	128359
#	143551
#	167069
#	185463
#
# Disc length: 2682 seconds
#
# Revision: 1
# Processed by: cddbd v1.5.2PL0 Copyright (c) Steve Scherf et al.
# Submitted via: CDex 1.70beta2
#
DISCID=850a780b
DTITLE=Sink Twice - These Days
DYEAR=2007
DGENRE=Country
TTITLE0=Change
TTITLE1=Carry on
TTITLE2=Live this life
TTITLE3=Good as gone
TTITLE4=Guilty
TTITLE5=Walkaway Joe
TTITLE6=Guy like me
TTITLE7=The river
TTITLE8=Deadwood mountain
TTITLE9=Bring it on home
TTITLE10=Belleauwood 1917
EXTD=YEAR: 2007
EXTT0=
EXTT1=
EXTT2=
EXTT3=
EXTT4=
EXTT5=
EXTT6=
EXTT7=
EXTT8=
EXTT9=
EXTT10=
PLAYORDER=
